<?xml version="1.0" standalone="no"?>
<!DOCTYPE svg PUBLIC "-//W3C//DTD SVG 20010904//EN"
 "http://www.w3.org/TR/2001/REC-SVG-20010904/DTD/svg10.dtd">
<svg version="1.0" xmlns="http://www.w3.org/2000/svg"
 width="1572.000000pt" height="2060.000000pt" viewBox="0 0 1572.000000 2060.000000"
 preserveAspectRatio="xMidYMid meet">

<g transform="translate(0.000000,2060.000000) scale(0.100000,-0.100000)"
fill="#000000" stroke="none">
<path d="M12097 12543 c-54 -178 -194 -368 -389 -526 -894 -723 -2911 -1071
-4818 -831 -1169 146 -2094 500 -2538 969 -103 109 -171 211 -218 327 -17 43
-34 82 -38 85 -3 4 -6 -872 -6 -1945 0 -1593 -2 -1952 -13 -1952 -7 0 -55 9
-107 21 -351 77 -801 138 -1260 171 -232 16 -992 16 -1230 0 -489 -34 -961
-101 -1350 -190 l-125 -29 -3 -1428 c-1 -786 1 -1432 5 -1436 18 -17 565 -123
818 -158 161 -23 498 -58 870 -91 127 -11 265 -25 307 -31 l78 -11 0 -64 c0
-62 -1 -64 -25 -64 -18 0 -25 -5 -25 -20 0 -15 7 -20 25 -20 14 0 25 -4 25
-10 0 -5 -11 -10 -24 -10 -15 0 -26 -7 -29 -20 -3 -11 -12 -20 -21 -20 -9 0
-16 -8 -16 -20 0 -15 -9 -21 -40 -26 -22 -4 -40 -10 -40 -15 0 -5 -11 -9 -25
-9 -14 0 -25 -4 -25 -10 0 -5 -22 -12 -49 -16 -28 -3 -52 -12 -55 -19 -2 -7
-32 -15 -65 -19 -33 -4 -63 -11 -66 -16 -4 -6 -28 -10 -55 -10 -27 0 -51 -4
-54 -9 -5 -8 -71 -23 -116 -27 -8 0 -28 -6 -43 -13 -16 -6 -42 -11 -58 -11
-16 0 -29 -4 -29 -10 0 -5 -9 -10 -20 -10 -11 0 -20 -4 -20 -10 0 -5 -9 -10
-19 -10 -11 0 -23 -5 -26 -10 -4 -6 -11 -8 -16 -5 -5 4 -9 0 -9 -8 0 -30 400
-65 850 -74 643 -12 1330 52 1908 178 184 40 172 43 172 -43 1 -40 5 -104 10
-143 4 -38 15 -131 24 -205 57 -488 157 -847 327 -1182 456 -893 1381 -1375
2889 -1503 186 -16 726 -35 855 -29 39 1 169 5 290 8 121 3 229 8 240 10 11 2
76 7 145 10 539 30 1106 145 1538 312 981 378 1528 1113 1671 2244 42 331 42
352 39 4275 -3 3659 -4 3767 -21 3708z m-6960 -3265 c-2 -13 -4 -3 -4 22 0 25
2 35 4 23 2 -13 2 -33 0 -45z m0 -110 c-3 -7 -5 -2 -5 12 0 14 2 19 5 13 2 -7
2 -19 0 -25z m0 -80 c-3 -7 -5 -2 -5 12 0 14 2 19 5 13 2 -7 2 -19 0 -25z m0
-55 c-3 -10 -5 -4 -5 12 0 17 2 24 5 18 2 -7 2 -21 0 -30z m0 -45 c-3 -8 -6
-5 -6 6 -1 11 2 17 5 13 3 -3 4 -12 1 -19z m0 -65 c-3 -10 -5 -2 -5 17 0 19 2
27 5 18 2 -10 2 -26 0 -35z m0 -75 c-2 -13 -4 -5 -4 17 -1 22 1 32 4 23 2 -10
2 -28 0 -40z m0 -90 c-3 -7 -5 -2 -5 12 0 14 2 19 5 13 2 -7 2 -19 0 -25z m0
-80 c-2 -13 -4 -3 -4 22 0 25 2 35 4 23 2 -13 2 -33 0 -45z m0 -161 c-2 -23
-3 -1 -3 48 0 50 1 68 3 42 2 -26 2 -67 0 -90z m0 -139 c-2 -18 -4 -4 -4 32 0
36 2 50 4 33 2 -18 2 -48 0 -65z m1733 10 c51 -26 105 -92 119 -146 6 -22 13
-414 17 -984 l7 -948 -22 0 c-20 0 -354 41 -357 44 -1 0 -3 438 -5 972 l-4
970 28 43 c48 72 133 91 217 49z m2442 -67 c127 -49 230 -153 284 -286 27 -69
28 -74 35 -345 4 -151 8 -517 8 -812 l1 -538 -22 -4 c-25 -6 -141 -20 -283
-35 -130 -15 -457 -39 -622 -46 l-143 -7 0 429 c0 235 -3 586 -7 778 -5 311
-4 360 11 428 41 185 156 333 321 412 110 53 114 54 250 51 84 -3 123 -8 167
-25z m-4175 -203 c-1 -40 -3 -10 -3 67 0 77 1 110 3 73 2 -37 2 -100 0 -140z
m2830 188 c150 -40 300 -170 369 -319 46 -102 52 -157 58 -582 8 -536 8 -1146
1 -1154 -18 -18 -877 3 -1026 25 l-36 5 -6 775 c-3 471 -2 800 4 837 5 36 26
97 49 143 64 131 169 223 300 265 68 22 214 24 287 5z m-2830 -343 c-3 -10 -5
-2 -5 17 0 19 2 27 5 18 2 -10 2 -26 0 -35z m0 -75 c-3 -8 -6 -5 -6 6 -1 11 2
17 5 13 3 -3 4 -12 1 -19z m0 -301 c-1 -45 -3 -5 -3 88 0 94 2 130 3 82 2 -48
2 -125 0 -170z m0 -119 c-3 -8 -6 -5 -6 6 -1 11 2 17 5 13 3 -3 4 -12 1 -19z
m0 -60 c-3 -7 -5 -2 -5 12 0 14 2 19 5 13 2 -7 2 -19 0 -25z m0 -151 c-2 -23
-3 -1 -3 48 0 50 1 68 3 42 2 -26 2 -67 0 -90z m0 -144 c-2 -16 -4 -5 -4 22 0
28 2 40 4 28 2 -13 2 -35 0 -50z m0 -55 c-3 -8 -6 -5 -6 6 -1 11 2 17 5 13 3
-3 4 -12 1 -19z m0 -80 c-2 -13 -4 -3 -4 22 0 25 2 35 4 23 2 -13 2 -33 0 -45z
m0 -60 c-3 -7 -5 -2 -5 12 0 14 2 19 5 13 2 -7 2 -19 0 -25z m0 -151 c-2 -23
-3 -1 -3 48 0 50 1 68 3 42 2 -26 2 -67 0 -90z m0 -139 c-2 -13 -4 -3 -4 22 0
25 2 35 4 23 2 -13 2 -33 0 -45z m0 -110 c-2 -18 -4 -6 -4 27 0 33 2 48 4 33
2 -15 2 -42 0 -60z m0 -120 c-2 -18 -4 -6 -4 27 0 33 2 48 4 33 2 -15 2 -42 0
-60z m0 -145 c-2 -21 -4 -4 -4 37 0 41 2 58 4 38 2 -21 2 -55 0 -75z m0 -165
c-2 -24 -4 -5 -4 42 0 47 2 66 4 43 2 -24 2 -62 0 -85z m0 -90 c-3 -7 -5 -2
-5 12 0 14 2 19 5 13 2 -7 2 -19 0 -25z m0 -60 c-3 -7 -5 -2 -5 12 0 14 2 19
5 13 2 -7 2 -19 0 -25z m0 -100 c-2 -18 -4 -6 -4 27 0 33 2 48 4 33 2 -15 2
-42 0 -60z m0 -90 c-2 -13 -4 -5 -4 17 -1 22 1 32 4 23 2 -10 2 -28 0 -40z
m2315 11 c3 -9 9 -9 25 0 30 15 64 14 91 -4 16 -12 27 -13 41 -5 33 17 71 11
96 -15 22 -21 25 -33 25 -100 0 -73 -1 -76 -22 -73 -21 3 -23 9 -26 73 -3 71
-13 95 -40 95 -35 0 -52 -31 -52 -97 0 -56 -2 -63 -20 -63 -18 0 -20 7 -20 65
0 77 -22 111 -62 96 -21 -7 -23 -16 -26 -80 -3 -68 -4 -71 -27 -71 -25 0 -25
1 -25 95 0 87 2 95 19 95 11 0 21 -5 23 -11z m486 -34 c77 -64 33 -175 -68
-175 -65 0 -109 43 -110 107 0 34 5 46 31 67 42 36 106 36 147 1z m112 10 c0
-19 5 -19 35 1 26 17 58 12 88 -14 13 -12 17 -31 17 -94 0 -71 -2 -78 -20 -78
-18 0 -20 7 -20 61 0 71 -12 99 -43 99 -42 0 -51 -15 -55 -89 -4 -62 -7 -71
-23 -71 -17 0 -19 9 -19 100 0 93 1 100 20 100 11 0 20 -7 20 -15z m807 -7
c13 -13 23 -33 23 -50 l0 -28 -80 0 c-78 0 -80 -1 -80 -24 0 -48 72 -72 118
-40 28 20 45 8 18 -12 -30 -21 -99 -18 -130 7 -22 17 -26 28 -26 69 0 42 4 52
31 74 39 33 93 35 126 4z m-471 -3 c25 -19 34 -19 34 1 0 8 5 12 10 9 6 -4 10
-62 10 -141 0 -83 -4 -134 -10 -134 -5 0 -10 25 -10 55 0 56 -12 69 -37 44 -7
-7 -31 -12 -54 -12 -100 0 -135 131 -48 179 32 18 81 17 105 -1z m124 -70 c0
-63 3 -76 19 -85 29 -15 47 -12 76 13 23 19 28 34 33 92 l7 70 5 -90 c3 -49 4
-92 3 -94 -1 -2 -8 1 -15 7 -9 7 -19 6 -32 -4 -27 -19 -75 -18 -98 3 -14 13
-18 31 -18 95 0 50 4 77 10 73 6 -3 10 -40 10 -80z m-3373 -17 c-3 -7 -5 -2
-5 12 0 14 2 19 5 13 2 -7 2 -19 0 -25z m0 -75 c-3 -10 -5 -2 -5 17 0 19 2 27
5 18 2 -10 2 -26 0 -35z m0 -95 c-3 -7 -5 -2 -5 12 0 14 2 19 5 13 2 -7 2 -19
0 -25z m0 -55 c-3 -10 -5 -4 -5 12 0 17 2 24 5 18 2 -7 2 -21 0 -30z m0 -155
c-3 -8 -6 -5 -6 6 -1 11 2 17 5 13 3 -3 4 -12 1 -19z"/>
<path d="M7814 5684 c-37 -55 25 -116 84 -83 56 31 32 109 -34 109 -25 0 -38
-7 -50 -26z"/>
<path d="M8747 5720 c-15 -12 -27 -30 -27 -41 0 -21 16 -23 94 -13 35 5 46 11
46 24 0 43 -72 62 -113 30z"/>
<path d="M8315 5722 c-63 -13 -86 -92 -40 -137 53 -53 145 -16 145 58 0 51
-51 90 -105 79z"/>
<path d="M1118 4973 c7 -3 16 -2 19 1 4 3 -2 6 -13 5 -11 0 -14 -3 -6 -6z"/>
</g>
</svg>
