<?xml version="1.0" standalone="no"?>
<!DOCTYPE svg PUBLIC "-//W3C//DTD SVG 20010904//EN"
 "http://www.w3.org/TR/2001/REC-SVG-20010904/DTD/svg10.dtd">
<svg version="1.0" xmlns="http://www.w3.org/2000/svg"
 width="716.000000pt" height="1652.000000pt" viewBox="0 0 716.000000 1652.000000"
 preserveAspectRatio="xMidYMid meet">

<g transform="translate(0.000000,1652.000000) scale(0.100000,-0.100000)"
fill="#000000" stroke="none">
<path d="M1132 16500 c-168 -24 -304 -90 -419 -206 -86 -87 -128 -158 -172
-293 -45 -139 -71 -345 -71 -573 0 -79 -4 -128 -10 -128 -12 0 -12 -7 0 253
11 224 34 368 75 472 37 89 23 77 -24 -22 -23 -48 -49 -104 -59 -123 -13 -26
-51 -58 -147 -122 -214 -145 -214 -145 -235 -193 -11 -25 -27 -84 -37 -133
-17 -83 -18 -395 -21 -6192 -2 -4141 1 -6148 8 -6240 13 -169 39 -318 52 -299
7 10 8 6 4 -13 -7 -32 3 -85 13 -69 4 6 7 -5 7 -25 0 -19 6 -39 12 -43 7 -4
10 -15 6 -24 -3 -10 -1 -17 6 -17 6 0 9 -4 6 -8 -13 -22 84 -228 171 -362 185
-284 440 -494 770 -635 96 -42 340 -128 468 -165 33 -10 213 -68 400 -128 187
-61 396 -129 465 -150 135 -43 893 -287 1155 -372 180 -58 959 -309 1165 -375
74 -23 221 -71 325 -105 414 -134 642 -190 780 -190 81 0 75 -3 315 167 91 65
143 93 169 93 11 0 22 4 25 9 3 4 -47 11 -112 14 -64 4 -133 11 -152 17 -29 8
-23 9 35 5 l70 -5 -105 23 c-58 13 -161 41 -230 61 -159 48 -587 184 -1010
321 -113 36 -259 84 -325 105 -66 21 -212 68 -325 105 -113 36 -315 102 -450
145 -135 43 -398 128 -585 189 -187 60 -396 128 -465 150 -69 22 -240 76 -380
122 -140 45 -277 89 -305 97 -27 8 -45 17 -38 19 10 4 111 -27 368 -112 39
-13 165 -53 280 -90 116 -36 228 -73 250 -80 22 -8 162 -53 310 -100 149 -48
331 -106 405 -130 214 -69 744 -240 870 -280 63 -20 394 -127 735 -237 833
-268 993 -308 1203 -295 267 16 468 137 595 359 40 68 93 237 114 358 17 100
18 390 21 6225 2 4477 0 6156 -8 6255 -20 237 -66 430 -150 620 -138 312 -393
594 -696 768 -189 108 -342 164 -1149 422 -209 67 -441 141 -515 165 -74 24
-281 91 -460 149 -179 57 -446 143 -595 191 -148 47 -283 91 -300 96 -16 6
-199 64 -405 130 -206 66 -519 167 -695 224 -176 57 -360 115 -410 129 -231
67 -455 95 -593 76z m438 -311 c97 -19 167 -40 930 -287 706 -228 1710 -552
2225 -719 264 -85 550 -177 635 -205 676 -217 766 -252 936 -364 51 -33 130
-99 184 -153 164 -165 259 -332 329 -576 l26 -90 2 -6313 c2 -3648 -1 -6320
-6 -6329 -7 -14 -10 -13 -21 8 -23 43 -123 141 -184 181 -47 30 -141 65 -445
164 -212 69 -487 158 -611 199 -124 40 -463 151 -755 245 -291 95 -532 174
-534 176 -19 17 25 7 140 -30 74 -25 321 -105 549 -179 228 -75 595 -194 815
-265 564 -184 605 -196 605 -183 0 4 -6 13 -12 19 -10 10 -14 137 -18 535 -4
333 -10 533 -17 552 -33 93 -93 176 -171 234 -58 44 -16 29 -1062 370 -338
109 -796 258 -1017 330 -222 72 -584 190 -805 262 -222 72 -574 186 -783 254
-964 314 -968 315 -1023 315 -86 0 -152 -44 -189 -125 -16 -37 -18 -85 -21
-567 l-3 -526 228 -75 c125 -42 311 -103 413 -136 102 -33 463 -150 802 -260
340 -111 622 -201 626 -201 5 0 12 31 16 70 13 126 88 235 194 282 208 92 511
-66 656 -342 39 -74 80 -209 73 -243 -4 -19 -4 -18 -6 5 0 15 -12 62 -26 105
-73 231 -257 415 -467 469 -218 56 -418 -101 -418 -327 l0 -47 -208 68 c-114
38 -484 159 -822 269 -338 110 -757 246 -930 302 -267 87 -325 103 -380 103
-73 0 -146 -27 -191 -70 l-26 -25 -6 23 c-4 13 -11 64 -17 113 -11 102 -12
4593 0 9460 l7 3000 25 95 c71 266 221 415 453 449 78 11 186 4 305 -20z
m-1123 -501 c-3 -7 -5 -2 -5 12 0 14 2 19 5 13 2 -7 2 -19 0 -25z m-1 -130
c-14 -252 -31 -11705 -18 -11753 6 -21 5 -33 -4 -40 -7 -5 -14 -32 -15 -60 -2
-39 0 -49 12 -48 12 2 14 -29 15 -195 1 -187 -11 -196 -16 -12 l-3 75 -7 -75
c-12 -118 7 -96 -240 -279 -123 -92 -120 -86 -122 -205 l-1 -101 -8 80 c-13
139 3 8684 17 8990 2 44 6 103 10 130 3 28 8 79 10 115 9 133 11 151 18 157 3
3 6 -131 6 -298 1 -296 1 -305 23 -340 12 -20 28 -34 34 -32 7 3 13 -2 13 -11
0 -45 102 16 140 84 l25 45 0 500 c0 453 -2 503 -17 531 -16 28 -16 32 -1 30
15 -1 20 18 23 87 1 9 5 17 11 17 5 0 10 8 10 18 1 9 5 4 9 -13 4 -17 8 46 9
145 1 96 4 189 6 205 2 17 6 390 9 830 7 949 14 1320 27 1435 5 47 9 88 9 93
0 4 5 7 11 7 8 0 10 -32 5 -112z m24 -6068 c0 -3800 -3 -5710 -10 -5710 -11 0
-15 11402 -3 11413 3 4 8 7 10 7 2 0 3 -2569 3 -5710z m60 5665 c0 -19 -2 -35
-4 -35 -2 0 -6 16 -8 35 -2 19 0 35 4 35 4 0 8 -16 8 -35z m-3 -97 c-3 -7 -5
-2 -5 12 0 14 2 19 5 13 2 -7 2 -19 0 -25z m0 -65 c-3 -10 -5 -4 -5 12 0 17 2
24 5 18 2 -7 2 -21 0 -30z m0 -75 c-2 -13 -4 -5 -4 17 -1 22 1 32 4 23 2 -10
2 -28 0 -40z m5713 -44 c0 -2 -9 0 -20 6 -11 6 -20 13 -20 16 0 2 9 0 20 -6
11 -6 20 -13 20 -16z m-5710 -54 c0 -38 -3 -70 -7 -70 -5 0 -7 30 -6 67 2 79
2 73 8 73 3 0 5 -31 5 -70z m5890 -58 c75 -53 260 -236 308 -305 47 -67 33
-58 -26 16 -94 118 -202 218 -382 350 -50 37 31 -13 100 -61z m-5892 -72 c2
-22 -1 -40 -5 -40 -7 0 -9 42 -4 73 3 19 7 3 9 -33z m2 -70 c0 -11 -4 -20 -9
-20 -5 0 -7 9 -4 20 3 11 7 20 9 20 2 0 4 -9 4 -20z m0 -155 c0 -63 -3 -115
-7 -115 -8 0 -9 47 -5 173 3 102 12 60 12 -58z m6260 -96 c15 -28 5 -23 -15 7
-9 15 -12 23 -6 20 6 -4 16 -16 21 -27z m-6260 -321 c0 -160 -2 -289 -5 -287
-2 3 -5 120 -6 260 -1 300 -1 319 6 319 3 0 5 -131 5 -292z m6290 272 c6 -11
8 -20 6 -20 -3 0 -10 9 -16 20 -6 11 -8 20 -6 20 3 0 10 -9 16 -20z m-6273
-152 c-3 -7 -5 -2 -5 12 0 14 2 19 5 13 2 -7 2 -19 0 -25z m0 -110 c-3 -8 -6
-5 -6 6 -1 11 2 17 5 13 3 -3 4 -12 1 -19z m-320 -156 c9 -5 13 -75 15 -250 2
-133 0 -242 -3 -242 -3 0 -17 -16 -31 -36 -15 -21 -29 -31 -32 -25 -4 6 -2 11
4 11 6 0 18 16 26 35 17 42 21 480 4 490 -6 4 -19 1 -28 -6 -13 -11 -12 -8 2
9 21 24 25 25 43 14z m98 -32 c3 -6 -1 -7 -9 -4 -18 7 -21 14 -7 14 6 0 13 -4
16 -10z m202 -152 c-3 -7 -5 -2 -5 12 0 14 2 19 5 13 2 -7 2 -19 0 -25z m20
-50 c-3 -8 -6 -5 -6 6 -1 11 2 17 5 13 3 -3 4 -12 1 -19z m-20 -58 c-1 -11 -5
-20 -9 -20 -10 0 -10 4 -2 24 8 22 13 20 11 -4z m0 -107 c-2 -16 -4 -3 -4 27
0 30 2 43 4 28 2 -16 2 -40 0 -55z m0 -95 c-2 -13 -4 -3 -4 22 0 25 2 35 4 23
2 -13 2 -33 0 -45z m0 -80 c-3 -8 -6 -5 -6 6 -1 11 2 17 5 13 3 -3 4 -12 1
-19z m0 -55 c-3 -10 -5 -4 -5 12 0 17 2 24 5 18 2 -7 2 -21 0 -30z m1 -104 c0
-47 -4 -76 -8 -68 -13 21 -9 149 5 149 2 0 3 -37 3 -81z m2 -115 c0 -14 -4
-23 -9 -19 -11 6 -10 45 1 45 4 0 8 -12 8 -26z m0 -56 c0 -18 -2 -20 -9 -8 -6
8 -7 18 -5 22 9 14 14 9 14 -14z m-4 -55 c-10 -10 -19 5 -10 18 6 11 8 11 12
0 2 -7 1 -15 -2 -18z m3 -65 c0 -35 -2 -39 -9 -21 -8 19 -3 63 6 63 2 0 4 -19
3 -42z m-339 -68 c-14 -10 -35 -31 -47 -47 -13 -15 -23 -25 -23 -21 0 13 72
88 84 88 6 0 0 -9 -14 -20z m340 -15 c0 -19 -4 -35 -8 -35 -4 0 -6 16 -4 35 2
19 6 35 8 35 2 0 4 -16 4 -35z m-270 -461 c0 -278 -4 -472 -10 -502 -8 -34
-24 -63 -54 -98 l-43 -49 -17 32 c-14 28 -16 75 -14 395 1 200 3 342 5 316 5
-53 22 -67 19 -15 -1 22 3 31 12 29 8 -1 12 5 11 15 -2 18 5 45 22 75 5 10 9
28 9 40 0 19 2 20 11 8 9 -12 10 -11 6 7 -3 13 -1 25 4 28 4 3 10 -36 12 -87
2 -60 4 -35 5 70 1 99 -2 171 -8 183 -15 27 -1 47 17 24 10 -15 13 -108 13
-471z m287 449 c-3 -10 -5 -4 -5 12 0 17 2 24 5 18 2 -7 2 -21 0 -30z m-20
-65 c-3 -8 -6 -5 -6 6 -1 11 2 17 5 13 3 -3 4 -12 1 -19z m2 -75 l-1 -58 -9
49 c-7 45 -5 66 7 66 2 0 3 -26 3 -57z m1 -88 c0 -8 -2 -15 -4 -15 -2 0 -6 7
-10 15 -3 8 -1 15 4 15 6 0 10 -7 10 -15z m17 -7 c-3 -8 -6 -5 -6 6 -1 11 2
17 5 13 3 -3 4 -12 1 -19z m-420 -30 c-3 -8 -6 -5 -6 6 -1 11 2 17 5 13 3 -3
4 -12 1 -19z m400 -40 c-2 -13 -4 -5 -4 17 -1 22 1 32 4 23 2 -10 2 -28 0 -40z
m20 -80 c-3 -8 -6 -5 -6 6 -1 11 2 17 5 13 3 -3 4 -12 1 -19z m-21 -75 c-10
-10 -19 5 -10 18 6 11 8 11 12 0 2 -7 1 -15 -2 -18z m1 -45 c2 -18 0 -20 -7
-8 -12 18 -13 30 -2 30 4 0 9 -10 9 -22z m3 -132 c0 -39 -6 -30 -13 19 -4 27
-3 35 3 25 5 -8 10 -28 10 -44z m0 -123 c0 -31 -2 -54 -5 -51 -8 7 -15 90 -9
100 11 17 14 6 14 -49z m6537 -35 c-3 -7 -5 -2 -5 12 0 14 2 19 5 13 2 -7 2
-19 0 -25z m-6539 -78 c0 -27 -4 -50 -9 -50 -5 0 -9 23 -9 50 0 28 4 50 9 50
6 0 10 -22 9 -50z m0 -86 c0 -15 -4 -22 -10 -16 -5 5 -6 16 -2 25 9 23 12 21
12 -9z m1 -101 c1 -37 0 -65 -3 -63 -8 9 -15 130 -7 130 4 0 9 -30 10 -67z
m18 30 c-3 -10 -5 -4 -5 12 0 17 2 24 5 18 2 -7 2 -21 0 -30z m-337 -43 c0 -5
-5 -10 -11 -10 -5 0 -7 5 -4 10 3 6 8 10 11 10 2 0 4 -4 4 -10z m337 -57 c-3
-10 -5 -4 -5 12 0 17 2 24 5 18 2 -7 2 -21 0 -30z m-17 -48 c0 -19 -4 -35 -10
-35 -5 0 -9 16 -7 35 3 45 17 45 17 0z m0 -61 c0 -8 -4 -12 -10 -9 -5 3 -10
10 -10 16 0 5 5 9 10 9 6 0 10 -7 10 -16z m0 -39 c0 -8 -2 -15 -4 -15 -2 0 -6
7 -10 15 -3 8 -1 15 4 15 6 0 10 -7 10 -15z m-1 -81 c-1 -30 -3 -53 -6 -50 -8
8 -10 106 -2 106 5 0 8 -25 8 -56z m18 -56 c-2 -13 -4 -3 -4 22 0 25 2 35 4
23 2 -13 2 -33 0 -45z m-19 -98 c0 -44 -5 -77 -9 -74 -5 3 -7 33 -5 67 3 34 5
68 5 75 1 6 3 12 6 12 2 0 4 -36 3 -80z m19 -42 c-2 -18 -4 -6 -4 27 0 33 2
48 4 33 2 -15 2 -42 0 -60z m-17 -90 c0 -18 -2 -20 -9 -8 -6 8 -7 18 -5 22 9
14 14 9 14 -14z m-3 -130 c2 -27 0 -29 -7 -13 -11 26 -12 45 -2 45 4 0 8 -15
9 -32z m20 -10 c-3 -8 -6 -5 -6 6 -1 11 2 17 5 13 3 -3 4 -12 1 -19z m-20 -93
c0 -25 -3 -45 -7 -45 -6 0 -6 14 -1 83 1 4 3 7 5 7 2 0 3 -20 3 -45z m1 -165
c0 -61 -4 -110 -9 -110 -7 0 -7 202 0 218 6 14 9 -15 9 -108z m2 -160 c0 -5
-2 -10 -4 -10 -3 0 -8 5 -11 10 -3 6 -1 10 4 10 6 0 11 -4 11 -10z m-4 -61 c1
-16 -2 -26 -7 -24 -4 3 -7 19 -6 34 3 36 11 30 13 -10z m2 -104 c-1 -35 -5
-62 -10 -59 -16 10 -9 124 8 124 1 0 2 -29 2 -65z m19 -57 c-3 -8 -6 -5 -6 6
-1 11 2 17 5 13 3 -3 4 -12 1 -19z m-17 -75 c-1 -44 -3 -54 -11 -41 -11 19 -8
98 4 98 4 0 7 -26 7 -57z m17 -45 c-3 -8 -6 -5 -6 6 -1 11 2 17 5 13 3 -3 4
-12 1 -19z m-19 -125 c1 -86 -8 -74 -14 19 -3 44 -1 68 4 60 5 -7 9 -43 10
-79z m19 -30 c-3 -10 -5 -2 -5 17 0 19 2 27 5 18 2 -10 2 -26 0 -35z m-20 -78
c0 -19 -4 -32 -9 -29 -11 7 -11 64 0 64 5 0 9 -16 9 -35z m20 -22 c-3 -10 -5
-4 -5 12 0 17 2 24 5 18 2 -7 2 -21 0 -30z m-20 -63 c-1 -22 -5 -40 -9 -40
-10 0 -10 8 -2 49 9 42 13 39 11 -9z m20 -72 c-3 -8 -6 -5 -6 6 -1 11 2 17 5
13 3 -3 4 -12 1 -19z m-17 -18 c0 -5 -2 -10 -4 -10 -3 0 -8 5 -11 10 -3 6 -1
10 4 10 6 0 11 -4 11 -10z m0 -40 c0 -5 -5 -10 -11 -10 -5 0 -7 5 -4 10 3 6 8
10 11 10 2 0 4 -4 4 -10z m17 -77 c-2 -16 -4 -5 -4 22 0 28 2 40 4 28 2 -13 2
-35 0 -50z m-20 35 c-3 -8 -6 -5 -6 6 -1 11 2 17 5 13 3 -3 4 -12 1 -19z m-1
-76 c-11 -10 -14 3 -8 33 l7 30 3 -28 c2 -16 1 -31 -2 -35z m0 -133 c3 -130
-6 -121 -12 12 -2 57 -1 99 3 96 4 -4 8 -53 9 -108z m21 74 c-3 -10 -5 -4 -5
12 0 17 2 24 5 18 2 -7 2 -21 0 -30z m-17 -219 c0 -21 -4 -33 -10 -29 -5 3
-10 19 -10 36 0 16 5 29 10 29 6 0 10 -16 10 -36z m17 -36 c-3 -7 -5 -2 -5 12
0 14 2 19 5 13 2 -7 2 -19 0 -25z m-17 -23 c0 -8 -4 -15 -10 -15 -5 0 -7 7 -4
15 4 8 8 15 10 15 2 0 4 -7 4 -15z m6537 -27 c-3 -8 -6 -5 -6 6 -1 11 2 17 5
13 3 -3 4 -12 1 -19z m-6540 -118 c0 -60 -4 -110 -9 -110 -4 0 -8 50 -8 110 0
61 4 110 8 110 5 0 9 -49 9 -110z m20 38 c-3 -7 -5 -2 -5 12 0 14 2 19 5 13 2
-7 2 -19 0 -25z m6520 -60 c-3 -7 -5 -2 -5 12 0 14 2 19 5 13 2 -7 2 -19 0
-25z m-6540 -313 c0 -104 -3 -171 -9 -163 -9 14 -7 349 3 343 3 -2 6 -83 6
-180z m20 78 c-3 -10 -5 -2 -5 17 0 19 2 27 5 18 2 -10 2 -26 0 -35z m0 -120
c-2 -21 -4 -6 -4 32 0 39 2 55 4 38 2 -18 2 -50 0 -70z m0 -85 c-3 -8 -6 -5
-6 6 -1 11 2 17 5 13 3 -3 4 -12 1 -19z m-19 -112 c1 -25 -1 -47 -5 -49 -5 -3
-9 17 -11 44 -1 27 1 49 5 49 4 0 9 -20 11 -44z m19 -43 c-2 -16 -4 -5 -4 22
0 28 2 40 4 28 2 -13 2 -35 0 -50z m0 -140 c-2 -16 -4 -3 -4 27 0 30 2 43 4
28 2 -16 2 -40 0 -55z m-22 -28 c0 -52 -3 -95 -8 -95 -8 0 -8 169 0 183 8 13
8 8 8 -88z m22 -57 c-3 -8 -6 -5 -6 6 -1 11 2 17 5 13 3 -3 4 -12 1 -19z m-21
-107 c-1 -39 -16 -53 -16 -14 0 24 6 43 15 43 1 0 1 -13 1 -29z m21 -63 c-3
-8 -6 -5 -6 6 -1 11 2 17 5 13 3 -3 4 -12 1 -19z m-17 -9 c0 -6 -4 -7 -10 -4
-5 3 -10 11 -10 16 0 6 5 7 10 4 6 -3 10 -11 10 -16z m-5 -263 c0 -129 -3
-237 -7 -241 -4 -4 -7 102 -7 234 0 133 3 241 7 241 4 0 7 -105 7 -234z m22
162 c-2 -13 -4 -5 -4 17 -1 22 1 32 4 23 2 -10 2 -28 0 -40z m0 -245 c-3 -10
-5 -4 -5 12 0 17 2 24 5 18 2 -7 2 -21 0 -30z m0 -156 c-2 -23 -3 -1 -3 48 0
50 1 68 3 42 2 -26 2 -67 0 -90z m-22 -206 c0 -99 -2 -182 -5 -185 -4 -3 -7
78 -8 179 -2 102 1 185 5 185 4 0 8 -81 8 -179z m22 92 c-2 -16 -4 -5 -4 22 0
28 2 40 4 28 2 -13 2 -35 0 -50z m0 -120 c-3 -10 -5 -2 -5 17 0 19 2 27 5 18
2 -10 2 -26 0 -35z m0 -205 c-2 -35 -3 -7 -3 62 0 69 1 97 3 63 2 -35 2 -91 0
-125z m-22 -68 c0 -43 -3 -76 -7 -74 -5 3 -8 42 -8 86 0 45 3 78 8 74 4 -4 7
-43 7 -86z m22 -82 c-3 -8 -6 -5 -6 6 -1 11 2 17 5 13 3 -3 4 -12 1 -19z m-22
-143 c1 -69 -2 -125 -7 -125 -5 0 -8 59 -7 131 0 72 4 128 7 124 3 -3 6 -62 7
-130z m22 103 c-3 -8 -6 -5 -6 6 -1 11 2 17 5 13 3 -3 4 -12 1 -19z m0 -125
c-2 -16 -4 -3 -4 27 0 30 2 43 4 28 2 -16 2 -40 0 -55z m0 -95 c-3 -8 -6 -5
-6 6 -1 11 2 17 5 13 3 -3 4 -12 1 -19z m-30 -65 c-3 -10 -5 -2 -5 17 0 19 2
27 5 18 2 -10 2 -26 0 -35z m8 -73 c-2 -70 -15 -76 -15 -7 0 32 4 57 8 57 5 0
8 -22 7 -50z m1 -105 c0 -14 -3 -25 -8 -25 -4 0 -8 14 -8 32 0 36 14 30 16 -7z
m21 -42 c-2 -16 -4 -5 -4 22 0 28 2 40 4 28 2 -13 2 -35 0 -50z m-22 -258 c0
-129 -3 -235 -7 -235 -4 0 -7 106 -8 235 0 129 3 235 8 235 4 0 7 -106 7 -235z
m22 -242 c-1 -87 -3 -16 -3 157 0 173 2 244 3 158 2 -87 2 -229 0 -315z m-20
-67 c-2 -76 -17 -78 -17 -2 0 46 5 66 16 66 2 0 2 -29 1 -64z m-4 -157 c-6 -6
-10 1 -10 23 0 30 1 30 10 10 7 -15 7 -26 0 -33z m24 -146 c-2 -38 -3 -7 -3
67 0 74 1 105 3 68 2 -38 2 -98 0 -135z m-23 17 c-1 -55 -4 -104 -8 -107 -3
-4 -6 44 -6 106 0 62 3 110 8 107 4 -2 7 -50 6 -106z m-7 -162 c-3 -7 -5 -2
-5 12 0 14 2 19 5 13 2 -7 2 -19 0 -25z m30 0 c-3 -8 -6 -5 -6 6 -1 11 2 17 5
13 3 -3 4 -12 1 -19z m-21 -223 c-1 -79 -5 -147 -9 -151 -4 -4 -7 67 -7 157 0
91 4 158 9 151 4 -7 7 -78 7 -157z m21 43 c-2 -24 -4 -5 -4 42 0 47 2 66 4 43
2 -24 2 -62 0 -85z m0 -95 c-3 -10 -5 -2 -5 17 0 19 2 27 5 18 2 -10 2 -26 0
-35z m0 -100 c-3 -10 -5 -4 -5 12 0 17 2 24 5 18 2 -7 2 -21 0 -30z m-23 -68
c0 -30 -4 -58 -7 -62 -4 -3 -7 21 -7 55 0 34 3 62 8 62 4 0 7 -25 6 -55z m23
-467 c-1 -90 -3 -19 -3 157 0 176 2 249 3 163 2 -86 2 -230 0 -320z m-22 221
c0 -65 -3 -119 -7 -119 -5 0 -8 57 -8 127 0 69 3 123 8 119 4 -4 7 -61 7 -127z
m-1 -186 c-10 -40 -14 -41 -14 -5 0 18 5 32 10 32 6 0 8 -11 4 -27z m6 -50 c0
-5 -5 -15 -10 -23 -8 -12 -10 -11 -10 8 0 12 5 22 10 22 6 0 10 -3 10 -7z m-7
-184 c-1 -72 -5 -134 -8 -137 -3 -3 -5 56 -5 131 0 76 4 137 8 137 4 0 7 -59
5 -131z m24 -41 c-2 -13 -4 -5 -4 17 -1 22 1 32 4 23 2 -10 2 -28 0 -40z m0
-145 c-2 -16 -4 -5 -4 22 0 28 2 40 4 28 2 -13 2 -35 0 -50z m-22 2 c0 -14 -3
-25 -7 -25 -4 0 -8 14 -8 32 0 36 13 30 15 -7z m-1 -92 c-6 -78 -14 -80 -14
-5 0 34 4 62 9 62 5 0 7 -25 5 -57z m23 -20 c-2 -16 -4 -5 -4 22 0 28 2 40 4
28 2 -13 2 -35 0 -50z m-23 -133 c1 -38 -2 -70 -6 -70 -5 0 -8 35 -8 77 0 42
3 73 7 70 3 -4 6 -38 7 -77z m0 -145 c1 -30 -2 -55 -6 -55 -4 0 -8 28 -8 62 0
75 12 70 14 -7z m23 3 c-2 -13 -4 -3 -4 22 0 25 2 35 4 23 2 -13 2 -33 0 -45z
m1623 -83 c195 -64 452 -147 570 -186 306 -98 310 -103 310 -354 0 -100 -4
-164 -12 -178 -16 -31 -39 -46 -68 -47 -14 0 -151 41 -305 91 -154 50 -406
131 -560 181 -154 50 -294 99 -311 111 -17 11 -42 36 -55 55 -23 34 -24 44
-27 212 l-3 176 27 27 c16 16 38 27 53 27 15 0 186 -52 381 -115z m-1623 23
c-3 -7 -5 -2 -5 12 0 14 2 19 5 13 2 -7 2 -19 0 -25z m-58 -558 c16 -113 56
-292 85 -377 46 -134 132 -308 209 -422 17 -24 25 -41 19 -37 -16 10 -94 132
-145 226 -78 146 -128 294 -167 495 -23 121 -49 530 -35 561 6 12 12 -49 16
-171 4 -104 12 -228 18 -275z m39 333 c2 -116 17 -325 28 -413 15 -109 72
-313 86 -304 4 3 5 -3 1 -12 -5 -13 -3 -15 7 -9 9 5 11 4 6 -4 -10 -16 13 -83
26 -75 6 4 8 2 4 -4 -8 -13 14 -63 25 -56 5 3 6 -2 3 -10 -8 -20 24 -78 38
-70 6 4 8 3 5 -4 -9 -13 2 -44 13 -37 5 3 12 0 16 -6 5 -8 3 -9 -6 -4 -8 5
-11 3 -8 -6 3 -8 11 -13 17 -11 7 1 9 -2 6 -8 -15 -24 205 -306 230 -297 7 3
12 -1 11 -8 0 -7 28 -38 63 -69 61 -53 91 -71 75 -44 -4 7 -3 8 5 4 6 -4 9
-11 6 -16 -3 -5 16 -25 42 -44 130 -95 444 -237 530 -240 23 -1 46 -6 50 -10
4 -4 -4 -5 -20 -1 -49 13 -28 -4 28 -21 33 -11 55 -23 55 -32 0 -10 -6 -12
-17 -7 -10 4 -61 22 -113 40 -400 139 -623 282 -834 535 -211 253 -328 527
-370 865 -18 147 -32 495 -19 495 5 0 10 -53 11 -117z m19 45 c-2 -13 -4 -3
-4 22 0 25 2 35 4 23 2 -13 2 -33 0 -45z m20 -420 c-3 -7 -5 -2 -5 12 0 14 2
19 5 13 2 -7 2 -19 0 -25z m10 -60 c-3 -7 -5 -2 -5 12 0 14 2 19 5 13 2 -7 2
-19 0 -25z m10 -40 c-3 -8 -6 -5 -6 6 -1 11 2 17 5 13 3 -3 4 -12 1 -19z
m-530 -265 c-3 -10 -5 -4 -5 12 0 17 2 24 5 18 2 -7 2 -21 0 -30z m651 -118
c-3 -3 -9 2 -12 12 -6 14 -5 15 5 6 7 -7 10 -15 7 -18z m-621 -47 c-3 -8 -6
-5 -6 6 -1 11 2 17 5 13 3 -3 4 -12 1 -19z m652 -233 c69 -112 181 -246 279
-332 79 -71 81 -74 48 -68 -32 7 -48 -2 -208 -111 -116 -79 -181 -117 -197
-116 -90 7 -295 235 -377 418 -45 101 -49 93 131 225 88 65 166 127 175 140
14 22 14 21 57 -27 23 -27 65 -85 92 -129z m1429 31 c3 -12 -1 -17 -10 -14 -7
3 -15 13 -16 22 -3 12 1 17 10 14 7 -3 15 -13 16 -22z m182 -39 c64 -22 95
-37 95 -47 0 -19 2 -19 -122 19 -69 21 -103 37 -103 46 0 21 22 18 130 -18z
m1470 -37 c0 -54 15 -71 73 -84 15 -4 27 -13 27 -20 0 -12 -7 -12 -44 -1 -24
8 -47 11 -50 8 -3 -4 -6 -26 -6 -50 0 -23 -4 -43 -10 -43 -5 0 -10 24 -10 54
l0 54 -50 17 c-27 9 -50 21 -50 27 0 10 23 8 78 -8 21 -6 22 -3 22 45 0 28 5
51 10 51 6 0 10 -22 10 -50z m-1652 -18 c2 -7 -3 -12 -12 -12 -9 0 -16 7 -16
16 0 17 22 14 28 -4z m274 -80 c6 -6 7 -15 4 -20 -4 -6 -48 4 -116 26 -82 27
-110 41 -110 53 0 15 13 13 106 -16 59 -19 111 -38 116 -43z m-1431 -19 c13
-16 12 -17 -3 -4 -10 7 -18 15 -18 17 0 8 8 3 21 -13z m1159 2 c0 -8 -7 -15
-15 -15 -8 0 -15 7 -15 15 0 8 7 15 15 15 8 0 15 -7 15 -15z m172 -44 c54 -18
100 -37 103 -42 17 -26 -16 -24 -115 9 -88 29 -110 40 -110 55 0 11 5 17 13
15 6 -3 56 -20 109 -37z m-1207 -71 c10 -11 16 -20 13 -20 -3 0 -13 9 -23 20
-10 11 -16 20 -13 20 3 0 13 -9 23 -20z m605 -405 c69 -24 118 -44 109 -44
-16 -1 -228 75 -237 84 -9 8 0 6 128 -40z m289 -20 c16 3 21 2 13 -3 -18 -12
491 -175 521 -167 15 4 18 3 9 -3 -10 -7 30 -23 135 -57 81 -26 223 -71 316
-102 106 -34 175 -52 190 -48 18 5 19 4 7 -5 -12 -10 -11 -11 8 -7 12 3 20 2
17 -3 -6 -10 161 -63 202 -64 22 0 29 -3 20 -9 -8 -6 -4 -7 11 -4 12 3 20 1
17 -3 -8 -13 71 -32 98 -25 16 5 18 4 8 -3 -18 -13 80 -46 109 -37 11 3 28 1
37 -5 15 -8 12 -9 -12 -5 -28 5 -29 5 -6 -5 14 -6 31 -8 38 -5 8 2 11 1 8 -4
-3 -5 3 -12 12 -15 10 -3 64 -19 120 -36 57 -17 108 -28 114 -24 8 4 9 3 5 -4
-4 -7 -5 -12 -2 -12 3 0 90 -27 193 -60 103 -33 194 -58 201 -55 7 3 11 1 8
-4 -8 -12 77 -33 101 -25 14 5 15 4 4 -4 -11 -8 -2 -14 41 -26 30 -9 64 -14
74 -10 14 4 15 3 6 -4 -11 -7 -8 -11 13 -16 14 -4 31 -4 37 0 7 5 8 2 3 -6 -6
-10 -1 -12 26 -7 19 4 28 3 21 -1 -17 -11 61 -38 78 -27 8 5 11 4 7 -2 -8 -12
99 -47 115 -37 6 4 8 3 5 -3 -8 -13 79 -37 95 -27 6 4 8 3 4 -4 -8 -13 95 -44
121 -36 12 4 14 3 5 -3 -17 -13 216 -87 243 -78 13 4 16 4 8 -2 -12 -8 331
-128 497 -173 126 -34 285 -59 381 -61 68 -1 87 -4 74 -12 -28 -16 -206 -1
-335 27 -170 38 -295 74 -790 234 -69 22 -280 91 -470 152 -357 115 -539 174
-745 240 -66 21 -268 86 -450 145 -181 59 -391 126 -465 150 -145 46 -168 53
-715 230 -198 64 -378 122 -400 129 -30 9 -41 18 -43 36 -4 22 -3 22 14 6 11
-12 25 -16 43 -11z m3356 -235 c48 -30 65 -61 80 -154 7 -46 20 -97 29 -114
20 -38 20 -42 0 -42 -31 0 -294 91 -294 102 0 6 7 19 16 29 9 10 19 48 24 84
13 108 67 143 145 95z m-3371 -116 c4 -10 1 -14 -6 -12 -15 5 -23 28 -10 28 5
0 13 -7 16 -16z m136 -14 c-8 -5 -17 -7 -19 -4 -3 3 1 9 9 14 8 5 17 7 19 4 3
-3 -1 -9 -9 -14z m71 -53 c-1 -12 -15 -9 -19 4 -3 6 1 10 8 8 6 -3 11 -8 11
-12z m149 -7 c0 -5 -7 -10 -16 -10 -8 0 -12 5 -9 10 3 6 10 10 16 10 5 0 9 -4
9 -10z m60 -55 c10 -12 10 -15 -4 -15 -9 0 -16 7 -16 15 0 8 2 15 4 15 2 0 9
-7 16 -15z m145 -15 c-3 -5 -11 -10 -16 -10 -6 0 -7 5 -4 10 3 6 11 10 16 10
6 0 7 -4 4 -10z m2765 -39 c0 -5 12 -11 28 -13 33 -4 37 -32 4 -36 -25 -4 -62
23 -62 45 0 7 7 13 15 13 8 0 15 -4 15 -9z m-2456 -107 c3 -8 2 -12 -4 -9 -6
3 -10 10 -10 16 0 14 7 11 14 -7z m166 -4 c0 -5 -5 -10 -11 -10 -5 0 -7 5 -4
10 3 6 8 10 11 10 2 0 4 -4 4 -10z m148 -99 c-7 -11 -17 -20 -23 -18 -16 6
-18 36 -4 53 11 13 14 13 27 1 11 -12 12 -18 0 -36z m742 -166 c10 -12 10 -18
0 -30 -17 -20 -27 -19 -35 5 -11 36 12 53 35 25z m140 -116 c0 -6 -4 -7 -10
-4 -5 3 -10 11 -10 16 0 6 5 7 10 4 6 -3 10 -11 10 -16z m170 -3 c0 -2 -7 -7
-16 -10 -8 -3 -12 -2 -9 4 6 10 25 14 25 6z m308 -144 c6 -18 -15 -14 -22 4
-4 10 -1 14 6 12 6 -2 14 -10 16 -16z m139 -8 c-3 -3 -12 -4 -19 -1 -8 3 -5 6
6 6 11 1 17 -2 13 -5z m73 -65 c0 -6 -4 -7 -10 -4 -5 3 -10 11 -10 16 0 6 5 7
10 4 6 -3 10 -11 10 -16z m140 1 c0 -5 -7 -10 -16 -10 -8 0 -12 5 -9 10 3 6
10 10 16 10 5 0 9 -4 9 -10z m70 -61 c0 -5 -4 -9 -10 -9 -5 0 -10 7 -10 16 0
8 5 12 10 9 6 -3 10 -10 10 -16z m140 -3 c0 -3 -4 -8 -10 -11 -5 -3 -10 -1
-10 4 0 6 5 11 10 11 6 0 10 -2 10 -4z m70 -67 c0 -5 -4 -9 -10 -9 -5 0 -10 7
-10 16 0 8 5 12 10 9 6 -3 10 -10 10 -16z m783 4 c-7 -2 -19 -2 -25 0 -7 3 -2
5 12 5 14 0 19 -2 13 -5z m-643 -7 c0 -3 -4 -8 -10 -11 -5 -3 -10 -1 -10 4 0
6 5 11 10 11 6 0 10 -2 10 -4z m693 -3 c-7 -2 -19 -2 -25 0 -7 3 -2 5 12 5 14
0 19 -2 13 -5z m-623 -64 c0 -5 -4 -9 -10 -9 -5 0 -10 7 -10 16 0 8 5 12 10 9
6 -3 10 -10 10 -16z"/>
<path d="M1397 15963 c-4 -3 -7 -21 -7 -40 0 -42 32 -77 66 -70 25 4 28 0 18
-27 -8 -22 -23 -20 -51 6 -13 12 -26 19 -29 16 -11 -12 16 -45 46 -58 27 -11
33 -10 51 6 18 16 20 28 17 73 -4 44 -10 59 -32 78 -26 22 -65 30 -79 16z m75
-48 c9 -20 9 -28 -1 -38 -17 -17 -45 4 -49 37 -3 21 1 26 18 26 12 0 25 -10
32 -25z"/>
<path d="M1633 15842 c-18 -26 -33 -53 -33 -59 0 -7 18 -18 40 -24 28 -9 40
-18 40 -31 0 -22 16 -23 36 -4 16 17 19 36 4 36 -6 0 -10 26 -10 59 0 44 -4
60 -16 65 -25 10 -27 8 -61 -42z m45 -51 c-2 -15 -7 -17 -26 -10 l-23 9 23 32
c22 31 23 32 26 11 2 -13 2 -31 0 -42z"/>
<path d="M1540 15866 c0 -18 16 -29 30 -21 13 8 1 35 -16 35 -8 0 -14 -6 -14
-14z"/>
<path d="M1768 15839 c-24 -14 -23 -33 2 -26 17 4 19 -1 22 -66 2 -46 7 -72
16 -75 10 -3 12 16 10 84 -3 93 -11 107 -50 83z"/>
<path d="M1540 15776 c0 -18 16 -29 30 -21 13 8 1 35 -16 35 -8 0 -14 -6 -14
-14z"/>
<path d="M2985 15517 c-56 -22 -88 -51 -111 -102 -57 -122 -4 -308 121 -424
51 -47 97 -72 185 -99 36 -11 214 -68 395 -127 763 -246 945 -304 977 -310 84
-16 182 41 211 121 59 167 -43 389 -220 477 -48 24 -1320 438 -1423 463 -66
16 -95 16 -135 1z"/>
<path d="M1310 15236 c0 -83 3 -105 15 -110 12 -4 15 5 15 52 0 93 36 134 85
98 16 -11 20 -30 25 -102 3 -57 9 -89 18 -92 9 -3 12 16 12 70 0 95 24 121 75
82 17 -12 21 -29 23 -104 3 -69 7 -90 18 -90 20 0 19 150 0 189 -22 42 -88 65
-113 40 -8 -8 -14 -6 -22 9 -14 26 -64 46 -96 38 -18 -5 -25 -2 -25 9 0 8 -7
15 -15 15 -12 0 -15 -18 -15 -104z"/>
<path d="M1671 15184 c-26 -34 -27 -74 -1 -125 54 -104 190 -105 190 -1 0 110
-132 198 -189 126z m119 -33 c37 -37 47 -77 29 -110 -31 -55 -108 -26 -130 49
-24 80 43 120 101 61z"/>
<path d="M1900 15046 c0 -83 3 -105 15 -110 12 -4 15 6 15 60 0 76 12 104 43
104 49 0 62 -22 67 -116 3 -57 9 -89 18 -92 18 -6 16 150 -3 187 -17 33 -64
56 -99 47 -16 -4 -26 -1 -30 9 -3 8 -10 15 -16 15 -6 0 -10 -39 -10 -104z"/>
<path d="M2139 15041 c-19 -15 -24 -28 -23 -64 2 -87 75 -157 150 -142 l34 6
0 -66 c0 -37 4 -65 10 -65 13 0 14 297 1 304 -5 4 -11 0 -14 -6 -3 -9 -11 -6
-27 10 -42 44 -94 53 -131 23z m86 -15 c65 -27 96 -115 55 -156 -24 -24 -41
-25 -80 -5 -41 21 -60 53 -60 102 0 32 5 46 22 57 27 19 21 19 63 2z"/>
<path d="M2371 14905 c4 -93 5 -98 33 -122 23 -19 37 -24 65 -21 25 3 40 0 48
-11 6 -9 13 -14 16 -11 8 10 -5 210 -14 210 -5 0 -9 -31 -9 -69 0 -50 -4 -74
-16 -85 -22 -23 -51 -20 -79 9 -22 22 -25 32 -25 104 0 47 -4 83 -11 87 -8 4
-10 -22 -8 -91z"/>
<path d="M2613 14896 c-66 -48 -17 -190 73 -212 32 -8 77 4 71 19 -2 7 -11 10
-18 8 -51 -14 -60 -12 -94 22 -19 19 -35 44 -35 56 0 12 1 21 3 21 1 0 36 -11
77 -24 72 -23 75 -24 78 -6 5 28 -26 86 -54 105 -37 24 -76 28 -101 11z m95
-29 c16 -12 45 -67 39 -73 -3 -3 -127 34 -135 42 -9 7 11 43 26 47 21 5 52 -2
70 -16z"/>
<path d="M5522 14533 c2 -56 6 -68 21 -71 16 -3 18 3 15 65 -2 56 -6 68 -21
71 -16 3 -18 -3 -15 -65z"/>
<path d="M5450 14540 c0 -27 2 -50 4 -50 2 0 11 -3 20 -6 13 -5 16 2 16 44 0
46 -9 62 -36 62 -2 0 -4 -22 -4 -50z"/>
<path d="M5380 14550 c0 -33 24 -50 42 -32 17 17 1 62 -22 62 -16 0 -20 -7
-20 -30z"/>
<path d="M5747 14529 c-30 -18 -3 -38 42 -32 42 6 87 -13 121 -49 15 -17 23
-19 32 -10 26 26 -85 102 -148 102 -16 0 -37 -5 -47 -11z"/>
<path d="M5777 14474 c-13 -14 7 -34 35 -34 16 0 43 -9 58 -20 19 -13 31 -17
35 -10 20 32 -100 92 -128 64z"/>
<path d="M6057 14433 c-10 -9 -8 -95 2 -111 9 -15 272 -103 284 -95 4 2 7 29
7 58 0 67 -4 70 -161 119 -130 40 -123 39 -132 29z"/>
<path d="M5810 14413 c1 -14 27 -43 38 -43 18 0 24 20 12 35 -13 15 -50 21
-50 8z"/>
<path d="M5265 14071 c-3 -5 0 -13 7 -18 28 -18 213 -72 221 -64 13 13 -13 27
-113 60 -106 35 -107 35 -115 22z"/>
<path d="M5266 13991 c-8 -13 12 -26 66 -44 31 -10 50 -12 54 -5 9 14 -4 23
-60 42 -58 19 -53 18 -60 7z"/>
<path d="M5264 13908 c-10 -16 5 -23 108 -58 96 -31 135 -36 120 -14 -11 17
-221 84 -228 72z"/>
<path d="M6197 13893 c-14 -14 -6 -50 16 -71 38 -36 67 -25 67 27 0 34 -61 67
-83 44z"/>
<path d="M6029 13859 c-19 -27 -20 -34 -8 -55 7 -14 19 -22 26 -20 7 3 15 1
18 -4 4 -6 -3 -10 -14 -10 -23 0 -26 -7 -11 -30 6 -10 10 -11 10 -2 0 25 17
11 18 -15 1 -16 5 -64 10 -108 8 -72 9 -75 10 -28 1 28 7 55 12 58 6 4 8 10 5
15 -3 5 -1 11 5 15 5 3 10 17 10 29 0 13 6 36 14 51 18 35 5 76 -36 110 -38
32 -42 31 -69 -6z m52 -29 c28 -16 23 -26 -12 -24 -35 2 -44 8 -34 23 8 14 21
14 46 1z"/>
<path d="M1336 13729 c-78 -93 29 -269 164 -269 60 0 90 33 90 99 0 63 -13 97
-53 139 -44 46 -78 62 -131 62 -37 0 -48 -5 -70 -31z m142 -39 c33 -20 62 -71
62 -109 0 -11 -10 -32 -23 -47 -19 -22 -28 -25 -55 -20 -17 4 -45 23 -62 42
-39 45 -43 114 -8 138 30 21 46 20 86 -4z"/>
<path d="M1746 13517 c41 -122 56 -154 75 -164 13 -7 29 -13 34 -13 9 0 89
181 102 229 3 13 -2 20 -19 24 -29 8 -30 7 -68 -85 -18 -43 -36 -78 -39 -78
-4 0 -22 48 -41 108 -19 59 -36 110 -39 113 -4 4 -17 9 -31 12 l-26 6 52 -152z"/>
<path d="M2104 13505 c-55 -38 -55 -136 -1 -207 41 -54 88 -81 143 -82 55 -1
69 12 45 42 -15 21 -20 22 -43 12 -21 -10 -32 -9 -63 6 -36 17 -76 76 -62 90
5 5 132 -29 192 -53 13 -4 15 2 9 38 -11 69 -39 115 -87 144 -49 28 -102 32
-133 10z m132 -59 c33 -33 48 -83 22 -73 -7 2 -39 13 -72 23 -65 21 -77 35
-51 64 27 30 62 25 101 -14z"/>
<path d="M2460 13281 c0 -79 4 -141 9 -141 5 0 16 -3 25 -6 14 -5 16 5 16 69
0 113 24 150 84 128 24 -10 26 -9 26 18 0 40 -54 58 -80 26 -15 -18 -30 -11
-30 16 0 10 -4 19 -9 19 -5 0 -16 3 -25 6 -14 5 -16 -10 -16 -135z"/>
<path d="M3070 13335 c0 -15 26 -32 36 -23 2 3 2 13 -2 22 -8 20 -34 21 -34 1z"/>
<path d="M2710 13326 c0 -3 23 -69 50 -147 46 -132 63 -164 81 -154 3 3 28 54
54 115 35 82 45 114 37 122 -12 12 -29 -22 -74 -139 -10 -29 -23 -55 -28 -58
-4 -3 -27 56 -51 130 -26 84 -47 135 -56 135 -7 0 -13 -2 -13 -4z"/>
<path d="M3072 13078 c2 -94 7 -133 16 -136 9 -3 12 28 12 132 0 115 -2 136
-15 136 -13 0 -15 -19 -13 -132z"/>
<path d="M3271 13104 c-25 -32 -28 -107 -7 -157 17 -42 76 -93 121 -106 54
-15 120 13 84 35 -6 3 -16 1 -22 -5 -6 -6 -27 -11 -46 -11 -46 0 -121 74 -121
120 0 17 1 30 3 30 2 0 50 -16 106 -35 l104 -35 -5 45 c-10 82 -78 145 -157
145 -31 0 -44 -6 -60 -26z m157 -39 c21 -23 32 -45 32 -64 l0 -30 -62 20
c-112 36 -118 40 -118 65 0 12 10 30 23 39 34 25 86 13 125 -30z"/>
<path d="M3604 13032 c3 -9 19 -71 37 -137 50 -192 61 -198 104 -59 17 52 35
96 40 96 6 0 25 -54 44 -119 30 -106 42 -132 62 -133 6 0 79 219 79 239 0 18
-28 13 -34 -6 -2 -10 -14 -52 -26 -93 -12 -41 -26 -79 -30 -84 -5 -5 -14 11
-20 35 -48 186 -60 219 -80 219 -5 0 -23 -44 -41 -97 -17 -54 -33 -100 -35
-102 -8 -9 -16 10 -35 90 -33 141 -39 157 -55 163 -11 4 -14 1 -10 -12z"/>
<path d="M2305 12239 c3 -13 14 -67 24 -119 l17 -95 67 -16 c308 -76 576 -395
606 -721 l6 -71 80 -27 c44 -15 93 -30 109 -34 l29 -7 -7 78 c-42 487 -454
963 -890 1028 -46 7 -47 7 -41 -16z"/>
<path d="M3692 11188 c-8 -8 -12 -64 -12 -187 0 -153 3 -179 18 -199 14 -18
91 -47 337 -127 280 -91 322 -102 340 -91 19 13 20 25 20 194 0 164 -2 182
-19 201 -14 15 -116 53 -326 121 -168 55 -315 100 -326 100 -11 0 -25 -5 -32
-12z m205 -174 c9 -14 13 -35 10 -51 -3 -15 -1 -38 4 -51 12 -30 -5 -62 -32
-62 -44 0 -100 86 -69 105 5 3 7 19 3 35 -3 17 0 36 6 44 16 19 59 8 78 -20z
m123 -22 c0 -20 -68 -163 -76 -160 -5 2 -8 11 -7 20 5 32 61 148 72 148 6 0
11 -4 11 -8z m90 -123 c0 -68 -3 -90 -12 -87 -8 3 -14 29 -16 72 -2 54 -6 67
-17 62 -8 -3 -17 0 -21 6 -8 13 23 38 48 38 16 0 18 -10 18 -91z m153 33 c33
-38 31 -61 -8 -96 -36 -34 -37 -34 -13 -41 30 -10 49 -25 43 -35 -8 -13 -110
25 -113 42 -2 9 14 28 38 44 51 37 53 70 2 66 -22 -1 -32 2 -32 12 0 35 55 39
83 8z"/>
<path d="M3842 10994 c2 -11 11 -20 22 -22 13 -3 17 1 14 14 -2 11 -11 20 -22
22 -13 3 -17 -1 -14 -14z"/>
<path d="M3840 10921 c0 -24 15 -35 36 -27 12 4 13 10 4 26 -14 26 -40 26 -40
1z"/>
<path d="M4530 10916 c0 -8 11 -17 25 -20 24 -6 25 -10 25 -81 0 -60 3 -75 15
-75 12 0 15 14 15 70 0 70 0 70 25 64 15 -4 25 -2 25 4 0 9 -21 17 -117 47 -7
3 -13 -2 -13 -9z"/>
<path d="M4681 10801 c-20 -41 -30 -74 -26 -81 6 -10 11 -9 21 5 19 26 74 9
92 -28 14 -28 32 -37 32 -14 -1 24 -65 181 -75 184 -6 2 -26 -28 -44 -66z m58
-12 c14 -42 15 -41 -11 -33 -30 9 -30 8 -22 38 8 35 20 33 33 -5z"/>
<path d="M4826 10804 c-11 -28 -7 -36 35 -75 43 -40 48 -72 10 -62 -12 3 -21
9 -21 14 0 5 -7 9 -15 9 -8 0 -15 -4 -15 -10 0 -17 48 -42 77 -38 22 2 29 9
31 31 3 22 -5 36 -40 67 -31 29 -40 42 -31 51 8 8 17 8 33 -1 26 -14 38 -6 20
15 -17 20 -76 20 -84 -1z"/>
<path d="M4962 10704 c2 -56 7 -89 15 -91 8 -3 13 11 15 39 l3 43 34 -53 c18
-29 42 -57 53 -63 23 -12 22 -10 -24 58 -15 23 -28 46 -28 50 0 5 14 20 31 32
24 18 28 25 18 32 -9 5 -25 -1 -46 -17 -17 -13 -34 -24 -37 -24 -3 0 -6 17 -8
37 -2 20 -9 38 -16 41 -10 3 -12 -16 -10 -84z"/>
<path d="M5132 10718 c-22 -22 -12 -50 30 -89 33 -30 40 -41 31 -50 -10 -10
-18 -10 -38 -1 -32 15 -35 15 -35 2 0 -15 66 -44 84 -37 10 4 16 19 16 40 0
28 -7 40 -35 61 -19 15 -35 34 -35 42 0 16 31 19 47 3 7 -7 13 -7 17 -1 7 12
-31 42 -54 42 -9 0 -21 -5 -28 -12z"/>
<path d="M4562 10664 c-33 -23 -31 -90 6 -132 28 -34 80 -55 102 -42 19 12 1
32 -21 25 -43 -14 -94 55 -81 108 6 25 47 32 77 13 22 -14 25 -14 25 -1 0 15
-48 45 -72 45 -8 0 -24 -7 -36 -16z"/>
<path d="M4720 10610 c-40 -40 -20 -117 39 -157 42 -28 65 -29 91 -3 43 43 11
138 -55 166 -45 18 -51 18 -75 -6z m94 -35 c43 -40 32 -115 -16 -115 -31 0
-68 45 -68 83 0 59 38 75 84 32z"/>
<path d="M4902 10489 c2 -55 7 -84 16 -87 9 -3 12 15 13 65 l1 68 26 -80 c15
-44 32 -79 37 -77 6 2 19 26 30 55 l20 52 5 -64 c3 -40 10 -66 18 -69 10 -3
12 16 10 85 -3 79 -5 88 -23 91 -15 2 -24 -8 -38 -43 -11 -25 -22 -45 -26 -45
-4 0 -16 28 -27 63 -16 49 -25 63 -42 65 -22 3 -23 1 -20 -79z"/>
<path d="M5120 10415 c0 -69 3 -85 15 -85 10 0 15 10 15 31 0 29 2 31 27 26
38 -7 53 1 53 30 0 37 -16 60 -51 72 -58 20 -59 19 -59 -74z m75 35 c13 -15
15 -24 8 -31 -18 -18 -53 -1 -53 27 0 29 20 31 45 4z"/>
<path d="M5260 10376 c0 -95 -1 -93 77 -112 38 -10 25 18 -15 30 -31 9 -31 9
-34 84 -2 49 -7 77 -15 80 -10 3 -13 -18 -13 -82z"/>
<path d="M5390 10331 l0 -88 44 -13 c64 -18 79 -6 24 18 -36 16 -48 27 -48 43
0 21 14 22 64 3 9 -4 16 -1 16 6 0 6 -18 19 -40 27 -27 11 -40 22 -40 35 0 17
5 19 40 13 40 -7 57 7 23 18 -10 3 -33 10 -50 15 l-33 11 0 -88z"/>
<path d="M5510 10371 c0 -6 11 -16 25 -21 24 -9 25 -14 25 -84 0 -56 4 -75 15
-80 13 -4 15 7 15 70 0 74 0 74 25 68 48 -12 25 14 -27 32 -29 9 -59 19 -65
22 -7 2 -13 -1 -13 -7z"/>
<path d="M5666 10322 c-9 -8 -7 -145 2 -158 11 -17 101 -44 108 -33 5 9 -53
39 -76 39 -5 0 -10 12 -10 26 0 27 11 28 64 8 9 -4 16 -1 16 6 0 6 -18 19 -40
27 -27 11 -40 22 -40 35 0 20 16 23 54 8 20 -7 26 -6 26 3 0 14 -95 49 -104
39z"/>
<path d="M5810 10196 l0 -84 31 -11 c42 -14 82 -14 97 1 17 17 15 90 -4 117
-16 22 -86 60 -111 61 -10 0 -13 -23 -13 -84z m69 40 c26 -14 51 -53 51 -81 0
-26 -31 -47 -59 -40 -14 4 -29 12 -33 18 -10 15 -10 101 -1 110 9 9 10 9 42
-7z"/>
<path d="M5157 9858 c-35 -27 -48 -122 -27 -199 20 -70 36 -78 468 -218 222
-72 412 -131 423 -131 10 0 28 9 39 20 17 17 20 33 20 100 0 86 -11 119 -52
156 -15 14 -167 68 -430 153 -223 72 -410 131 -415 131 -5 0 -17 -6 -26 -12z
m207 -175 c17 -50 14 -68 -8 -38 -8 12 -20 16 -35 12 -25 -6 -25 -4 -9 40 17
46 33 41 52 -14z m46 -13 c0 -29 4 -40 15 -40 8 0 15 -5 15 -11 0 -6 -7 -8
-16 -5 -9 3 -20 6 -25 6 -5 0 -9 20 -9 45 0 25 5 45 10 45 6 0 10 -18 10 -40z
m60 -19 c0 -31 4 -40 23 -46 12 -3 17 -9 10 -11 -7 -3 -21 0 -32 6 -16 8 -21
21 -21 50 0 22 5 40 10 40 6 0 10 -17 10 -39z m130 -2 c11 -8 12 -12 3 -16 -7
-2 -13 -20 -13 -39 0 -19 -4 -34 -10 -34 -5 0 -10 17 -10 38 0 21 -5 43 -12
50 -9 9 -8 12 8 12 10 0 26 -5 34 -11z m73 -71 c9 -27 12 -48 7 -48 -4 0 -11
7 -14 16 -3 8 -16 15 -28 14 -38 -3 -39 -1 -17 41 23 47 30 44 52 -23z m72 22
c3 -5 -1 -10 -9 -10 -20 0 -21 -16 -1 -24 16 -6 21 -41 6 -50 -12 -8 -41 4
-41 16 0 6 7 8 15 4 20 -7 19 1 -5 31 -11 14 -17 29 -14 34 7 12 41 11 49 -1z
m44 -40 c4 0 12 5 19 12 17 17 27 2 12 -17 -11 -14 -11 -21 4 -46 22 -37 5
-39 -19 -2 -17 26 -19 26 -26 8 -5 -13 -7 -3 -7 30 0 28 2 42 5 33 2 -10 8
-18 12 -18z m107 -12 c5 -8 2 -9 -9 -5 -22 8 -21 1 2 -30 11 -13 17 -31 14
-39 -7 -18 -15 -18 -39 2 -18 15 -18 15 4 9 28 -8 29 10 2 25 -26 14 -27 50
-1 50 11 0 23 -5 27 -12z"/>
<path d="M5330 9690 c0 -5 5 -10 11 -10 5 0 7 5 4 10 -3 6 -8 10 -11 10 -2 0
-4 -4 -4 -10z"/>
<path d="M1395 9813 c-48 -25 -72 -51 -94 -103 l-21 -49 2 -2174 3 -2173 39
-79 c43 -86 105 -156 176 -197 25 -14 380 -135 790 -268 889 -288 1410 -458
1930 -627 212 -69 468 -152 570 -185 102 -33 435 -141 740 -240 356 -116 575
-183 611 -186 43 -3 65 1 96 16 51 27 99 81 112 129 8 26 11 717 11 2184 0
2380 5 2192 -66 2310 -39 65 -114 139 -170 167 -21 11 -174 63 -339 117 -165
53 -381 123 -480 155 -99 32 -425 138 -725 235 -300 97 -626 203 -725 235 -99
32 -342 111 -540 175 -679 220 -868 281 -1416 459 -381 124 -436 135 -504 99z
m360 -2133 c62 -20 100 -38 110 -53 13 -19 15 -115 15 -783 0 -646 -2 -763
-14 -773 -21 -18 -183 32 -213 65 l-23 25 0 763 c0 734 2 786 27 786 1 0 45
-14 98 -30z m710 -910 c48 -16 97 -37 107 -46 17 -16 18 -42 18 -444 0 -375
-2 -429 -16 -440 -13 -11 -30 -9 -106 16 -139 44 -128 1 -128 498 0 412 2 446
30 446 3 0 46 -13 95 -30z m1400 -6 c44 -14 88 -35 98 -46 16 -19 17 -65 17
-663 0 -354 -3 -650 -6 -659 -8 -22 -26 -20 -119 10 -48 15 -89 36 -102 50
l-23 25 0 639 c0 351 3 645 6 654 9 22 37 20 129 -10z m-671 -81 c117 -39 106
18 106 -554 0 -273 -3 -504 -6 -513 -8 -22 -26 -20 -119 10 -48 15 -89 36
-102 50 l-23 25 0 490 c0 320 4 497 10 510 12 22 21 21 134 -18z m-1442 -745
c14 -47 23 -48 39 -3 22 59 39 44 37 -32 -1 -68 -1 -68 -7 -18 l-7 50 -19 -37
c-22 -44 -31 -47 -40 -15 -3 12 -12 36 -18 52 l-12 30 -6 -50 c-5 -46 -6 -43
-7 25 -1 69 0 73 14 55 8 -11 20 -37 26 -57z m3460 -174 c140 -43 129 -2 126
-442 -3 -438 10 -401 -127 -357 -129 42 -121 12 -121 439 0 350 3 386 30 386
3 0 44 -12 92 -26z m-2702 -24 c0 -4 -9 -6 -19 -3 -18 5 -20 -1 -24 -53 l-3
-59 -2 62 c-2 52 -5 63 -22 68 -11 3 -20 10 -20 15 0 5 20 2 45 -7 25 -8 45
-19 45 -23z m2133 -71 c15 -19 17 -47 17 -249 0 -126 -3 -235 -6 -244 -8 -21
-22 -20 -120 10 -128 39 -124 29 -124 305 0 187 3 230 15 242 13 13 26 11 107
-14 56 -17 100 -37 111 -50z m-1529 -160 c10 -61 18 -68 30 -24 16 55 31 53
48 -7 l14 -53 14 43 c12 39 37 63 26 25 -2 -10 -10 -37 -17 -60 -12 -43 -26
-55 -34 -30 -2 6 -9 32 -16 57 l-12 45 -15 -49 c-9 -31 -17 -45 -23 -39 -10
10 -39 107 -39 131 0 29 18 0 24 -39z m781 -215 c22 -10 24 -13 8 -10 -22 4
-23 1 -23 -50 0 -30 -4 -54 -10 -54 -6 0 -10 27 -10 60 0 46 -3 60 -14 60 -8
0 -18 5 -22 11 -7 13 22 5 71 -17z m-1617 -107 c2 -42 -1 -67 -8 -67 -6 0 -10
25 -10 61 0 50 -3 60 -15 55 -8 -3 -15 -1 -15 3 0 11 21 20 35 17 6 -1 11 -33
13 -69z m100 -39 l-2 -73 -3 63 c-4 56 -6 62 -26 62 -18 0 -19 2 -7 10 34 22
40 12 38 -62z m123 32 c26 -14 25 -64 -2 -101 -25 -35 -46 -39 -23 -4 9 14 12
25 8 25 -5 0 -1 5 9 11 21 12 22 42 2 59 -32 26 -63 -18 -33 -48 7 -7 9 -12 5
-12 -3 0 -13 11 -22 24 -29 43 6 72 56 46z m164 -50 c32 -12 33 -22 1 -14 -24
6 -25 4 -29 -58 l-3 -63 -2 66 c-2 57 -5 67 -24 78 -22 11 -22 11 4 6 15 -3
39 -10 53 -15z m1915 -63 c0 -5 -8 -6 -17 -2 -10 4 -24 9 -30 12 -8 3 -13 -3
-13 -16 0 -14 9 -25 25 -31 14 -5 25 -12 25 -15 0 -3 -11 -3 -25 1 -23 6 -25
3 -25 -27 0 -26 -3 -30 -10 -19 -10 16 -14 113 -4 122 8 8 74 -14 74 -25z
m-1835 -22 c29 -28 32 -60 8 -73 -39 -22 -94 38 -73 79 14 26 36 24 65 -6z
m85 -15 c5 0 10 -4 10 -10 0 -5 -6 -9 -12 -7 -20 3 -21 -43 -2 -64 9 -10 13
-19 8 -19 -20 0 -34 25 -34 62 0 23 -5 38 -12 39 -10 0 -10 2 0 6 6 2 12 12
13 21 0 12 3 10 9 -5 5 -13 14 -23 20 -23z m3068 14 c123 -39 123 -39 120
-192 l-3 -127 -25 -3 c-14 -1 -63 10 -110 26 -63 21 -88 35 -97 53 -13 25 -18
224 -7 253 8 22 24 20 122 -10z m-2931 -116 c-2 -24 -4 -7 -4 37 0 44 2 63 4
43 2 -21 2 -57 0 -80z m-53 66 c17 -16 23 -99 7 -90 -5 4 -8 22 -7 41 3 36 -6
50 -39 58 -19 4 -18 5 2 6 12 0 29 -6 37 -15z m191 -9 c26 -12 27 -13 8 -14
-20 -1 -22 -7 -26 -63 l-3 -63 -2 68 c-2 62 -4 68 -27 77 -14 5 -25 12 -25 15
0 7 31 -1 75 -20z m-217 -22 c-10 -2 -18 -11 -18 -18 0 -8 8 -19 18 -24 9 -6
12 -11 5 -11 -13 0 -43 27 -43 39 0 14 13 21 34 20 17 -1 18 -2 4 -6z m445
-130 c53 22 53 22 34 0 -18 -20 -18 -23 -2 -50 15 -24 13 -23 -13 7 l-30 34
-5 -24 c-2 -14 -4 11 -4 55 1 56 2 64 4 27 3 -37 8 -52 16 -49z m-145 75 c7
-7 12 -30 12 -52 0 -21 -3 -36 -7 -32 -4 4 -8 15 -8 24 0 10 -9 18 -22 20 -27
4 -30 -15 -5 -35 15 -13 15 -13 -5 -3 -13 6 -23 20 -23 30 0 16 7 20 31 20 36
0 35 21 -2 31 -21 6 -21 7 -3 8 11 1 25 -4 32 -11z m86 -27 c4 -5 -3 -7 -14
-4 -27 7 -25 -9 5 -35 27 -23 31 -37 15 -47 -14 -9 -50 4 -50 18 0 8 3 8 12
-1 7 -7 16 -12 20 -12 16 0 7 23 -18 46 -14 13 -22 29 -19 34 8 12 42 13 49 1z
m1947 -11 c10 -6 19 -15 19 -20 0 -6 -9 -5 -20 2 -14 9 -22 10 -31 1 -8 -8 -3
-18 20 -39 32 -28 41 -69 19 -77 -16 -5 -58 13 -58 25 0 5 9 4 21 -3 16 -8 24
-8 33 1 8 8 3 18 -22 38 -54 45 -39 102 19 72z m-1776 -44 c18 -13 17 -14 -10
-9 l-30 5 33 -32 c25 -24 30 -35 22 -45 -6 -7 -20 -11 -31 -8 -29 8 -32 21 -4
15 32 -6 32 7 -2 34 -17 14 -24 26 -20 37 8 21 17 21 42 3z m565 -201 c0 -43
-4 -75 -10 -75 -6 0 -10 27 -10 61 0 50 -3 60 -15 56 -8 -4 -17 -1 -21 5 -8
12 13 28 39 28 15 0 17 -10 17 -75z m125 22 c20 -29 20 -111 0 -127 -21 -18
-62 2 -75 36 -15 37 -12 90 5 107 18 19 51 11 70 -16z m-405 7 c0 -17 -22 -14
-28 4 -2 7 3 12 12 12 9 0 16 -7 16 -16z m2154 0 c25 -10 19 -22 -9 -16 -35 6
-32 -19 6 -47 20 -15 29 -29 27 -44 -4 -29 -39 -33 -63 -7 -10 11 -13 20 -7
20 7 0 12 -4 12 -10 0 -5 9 -10 20 -10 28 0 25 26 -5 46 -54 36 -39 90 19 68z
m-1645 -40 c16 -21 18 -30 10 -46 -8 -14 -8 -23 0 -31 15 -15 14 -42 -3 -56
-33 -28 -99 34 -81 76 4 10 7 28 6 40 -5 49 35 59 68 17z m182 -53 c30 -24 19
-38 -14 -17 -43 29 -78 -5 -58 -57 11 -29 42 -49 69 -45 10 2 17 -3 17 -12 0
-10 -9 -14 -30 -13 -64 5 -112 103 -73 151 15 18 63 15 89 -7z m104 -86 c28
-27 32 -66 10 -85 -29 -24 -95 24 -95 70 0 14 30 40 46 40 8 0 26 -11 39 -25z
m103 -28 c7 -6 25 -11 38 -12 14 0 29 -7 34 -15 13 -20 13 -100 0 -100 -5 0
-10 13 -10 29 0 39 -9 61 -26 61 -9 0 -14 -12 -14 -36 0 -51 -24 -39 -28 15
-3 33 -7 42 -20 39 -11 -2 -18 -15 -20 -36 -5 -50 -22 -27 -22 29 0 49 0 49
28 43 15 -4 33 -11 40 -17z m242 -98 c0 -60 -3 -80 -12 -77 -13 5 -24 128 -14
155 13 34 26 -4 26 -78z m-90 49 c52 -7 68 -108 17 -108 -13 0 -28 5 -35 12
-9 9 -12 6 -12 -15 0 -15 -4 -27 -10 -27 -6 0 -10 34 -10 81 0 64 3 79 13 71
6 -5 23 -12 37 -14z m172 -57 c25 -20 41 -17 50 9 5 12 7 11 14 -5 4 -11 13
-24 21 -28 18 -11 17 -27 -2 -27 -21 0 -19 -47 2 -59 10 -5 14 -13 10 -17 -15
-15 -42 13 -45 47 -4 37 -22 66 -22 35 0 -16 -5 -17 -37 -11 -31 5 -36 4 -25
-7 7 -7 20 -13 29 -13 9 0 18 -6 20 -12 8 -23 -37 -14 -62 12 -27 26 -32 64
-13 83 17 17 31 15 60 -7z m308 -117 c0 -84 0 -85 -22 -79 -13 4 -31 9 -41 12
-9 2 -24 17 -31 32 -15 28 -92 63 -83 38 2 -7 16 -13 31 -15 26 -3 32 -22 9
-29 -18 -6 -73 47 -73 72 0 51 70 59 92 10 9 -21 12 -22 26 -9 8 8 21 13 28
10 8 -3 21 -9 29 -12 11 -5 15 1 15 25 0 17 5 31 10 31 6 0 10 -35 10 -86z
m123 30 c48 -16 62 -34 27 -34 -16 0 -19 -8 -22 -57 -2 -34 -8 -58 -15 -61
-10 -3 -13 13 -13 59 0 57 -3 66 -27 86 -34 27 -17 30 50 7z m94 -90 c19 -19
28 -23 34 -13 6 10 13 10 33 1 32 -14 35 -36 4 -27 -21 5 -21 4 5 -17 47 -41
24 -88 -27 -55 -13 9 -39 19 -59 22 -46 9 -75 38 -57 60 8 9 22 13 39 9 25 -5
25 -5 7 10 -11 9 -26 16 -34 16 -7 0 -10 5 -7 10 11 17 35 11 62 -16z m133
-24 l0 -50 24 15 c18 12 26 13 32 4 4 -7 0 -17 -8 -23 -23 -17 3 -62 39 -69
38 -7 40 -2 7 26 -18 16 -25 29 -21 40 8 21 40 22 57 2 17 -20 5 -32 -15 -15
-25 21 -17 -1 10 -26 29 -27 32 -42 9 -51 -30 -11 -91 16 -113 50 -19 29 -21
30 -21 10 0 -13 -4 -23 -10 -23 -6 0 -10 33 -10 80 0 47 4 80 10 80 6 0 10
-23 10 -50z"/>
<path d="M2690 5027 c0 -27 17 -47 41 -47 22 0 29 19 16 48 -14 31 -57 31 -57
-1z"/>
<path d="M4080 4626 c-11 -31 2 -80 22 -84 20 -4 32 29 23 67 -8 39 -33 48
-45 17z"/>
<path d="M4190 4601 c0 -5 6 -14 14 -20 16 -13 32 2 21 19 -8 12 -35 13 -35 1z"/>
<path d="M4190 4531 c0 -12 2 -21 4 -21 2 0 12 -3 21 -6 13 -5 16 -2 13 17 -4
31 -38 39 -38 10z"/>
<path d="M4474 4456 c-7 -19 12 -46 33 -46 21 0 13 54 -10 58 -9 2 -20 -4 -23
-12z"/>
<path d="M4754 4365 c-11 -29 35 -61 51 -35 9 14 -13 50 -31 50 -8 0 -17 -7
-20 -15z"/>
<path d="M4910 4320 c0 -5 9 -10 21 -10 11 0 17 5 14 10 -3 6 -13 10 -21 10
-8 0 -14 -4 -14 -10z"/>
<path d="M5080 4271 c0 -10 30 -24 37 -17 3 3 2 9 -2 15 -8 13 -35 15 -35 2z"/>
<path d="M5184 4225 c-11 -29 35 -61 51 -35 9 14 -13 50 -31 50 -8 0 -17 -7
-20 -15z"/>
<path d="M5430 4110 c0 -5 9 -10 20 -10 11 0 20 5 20 10 0 6 -9 10 -20 10 -11
0 -20 -4 -20 -10z"/>
<path d="M5500 4100 c0 -11 4 -20 9 -20 5 0 16 -3 25 -6 24 -9 18 9 -9 29 -24
17 -25 17 -25 -3z"/>
<path d="M188 11388 c-87 -80 -83 -51 -86 -584 -2 -321 1 -478 8 -495 21 -47
35 -66 48 -61 6 2 12 -4 12 -13 0 -39 102 22 138 84 l27 46 2 485 c3 484 3
485 -20 530 -31 64 -65 66 -129 8z m70 -503 c-3 -428 -5 -483 -20 -511 -9 -17
-24 -36 -32 -43 -21 -18 -20 -31 2 -31 14 0 15 -2 2 -10 -10 -6 -16 -6 -19 1
-2 6 -11 3 -21 -6 -18 -16 -20 -15 -37 17 -17 31 -18 67 -18 493 1 480 2 499
44 549 9 10 30 27 46 37 56 35 56 37 53 -496z"/>
<path d="M2073 3613 c-23 -9 -15 -61 13 -86 22 -21 23 -25 10 -36 -16 -13 -13
-31 4 -31 14 0 60 72 60 93 0 21 -43 67 -62 66 -7 0 -19 -3 -25 -6z m53 -38
c4 -8 3 -22 0 -30 -8 -22 -46 -1 -46 25 0 24 38 28 46 5z"/>
<path d="M2173 3568 c2 -7 15 -13 28 -13 15 0 25 -7 27 -17 2 -11 -3 -18 -12
-18 -20 0 -21 -19 -2 -26 17 -7 28 -32 20 -45 -3 -6 -16 -3 -31 6 -33 22 -44
9 -14 -16 32 -26 65 -21 69 10 2 13 -1 28 -6 33 -7 7 -7 16 1 28 17 28 -15 70
-54 70 -20 0 -29 -4 -26 -12z"/>
<path d="M2330 3515 c-15 -18 -4 -55 22 -76 17 -13 18 -19 9 -37 -10 -18 -9
-22 3 -22 21 0 56 53 56 84 0 50 -62 85 -90 51z m64 -32 c8 -19 -1 -33 -20
-33 -17 0 -28 24 -20 45 6 17 32 10 40 -12z"/>
<path d="M2451 3491 c-9 -6 -12 -19 -8 -39 3 -16 1 -34 -5 -40 -30 -30 46 -98
78 -71 17 14 18 41 2 57 -8 8 -8 15 1 26 15 18 1 50 -29 66 -22 12 -21 12 -39
1z m47 -45 c3 -13 -1 -17 -14 -14 -11 2 -20 11 -22 22 -3 13 1 17 14 14 11 -2
20 -11 22 -22z m0 -64 c3 -19 -1 -23 -15 -20 -10 2 -19 14 -21 26 -3 19 1 23
15 20 10 -2 19 -14 21 -26z"/>
<path d="M2540 3437 c0 -30 32 -60 54 -51 33 13 10 74 -29 74 -20 0 -25 -5
-25 -23z m48 -14 c-4 -22 -22 -20 -26 1 -2 10 3 16 13 16 10 0 15 -7 13 -17z"/>
<path d="M2616 3379 c-21 -32 -36 -64 -34 -70 4 -13 25 13 67 83 37 61 8 50
-33 -13z"/>
<path d="M2282 3419 c2 -7 10 -15 17 -17 8 -3 12 1 9 9 -2 7 -10 15 -17 17 -8
3 -12 -1 -9 -9z"/>
<path d="M2640 3345 c-8 -9 -7 -20 1 -38 15 -33 38 -42 58 -23 11 12 12 20 4
39 -13 28 -48 40 -63 22z m50 -36 c0 -12 -27 -11 -35 1 -11 17 5 32 21 19 8
-6 14 -15 14 -20z"/>
<path d="M5296 1444 c-9 -8 -16 -32 -16 -52 -1 -20 -7 -54 -14 -74 l-13 -37
91 -31 c50 -16 95 -30 100 -30 4 0 5 12 1 28 -4 15 -11 56 -15 92 -7 54 -14
69 -39 92 -35 31 -72 36 -95 12z"/>
<path d="M629 16269 l-24 -20 28 17 c15 9 27 18 27 20 0 8 -8 4 -31 -17z"/>
<path d="M486 16175 c-27 -18 -54 -39 -60 -46 -6 -6 17 7 52 30 34 23 62 44
62 46 0 7 -1 7 -54 -30z"/>
<path d="M380 16099 c-22 -18 -22 -19 -3 -10 12 6 25 16 28 21 9 15 3 12 -25
-11z"/>
<path d="M6188 313 c6 -2 18 -2 25 0 6 3 1 5 -13 5 -14 0 -19 -2 -12 -5z"/>
</g>
</svg>
